<?xml version="1.0" encoding="utf-8"?>
<!-- Generator: Adobe Illustrator 26.0.0, SVG Export Plug-In . SVG Version: 6.00 Build 0)  -->
<svg version="1.1" id="Layer_1" xmlns="http://www.w3.org/2000/svg" xmlns:xlink="http://www.w3.org/1999/xlink" x="0px" y="0px"
	 viewBox="0 0 42 18.6" style="enable-background:new 0 0 42 18.6;" xml:space="preserve">
<style type="text/css">
	.st0{fill:#020203;}
</style>
<path class="st0" d="M0,0h2.9v4.8l0,0c0.5-1,1.6-1.5,2.7-1.4c1.8,0,2.9,1,2.9,3.2V15H5.6V7.2c0-1.1-0.4-1.6-1.2-1.6
	c-1,0-1.5,0.6-1.5,1.9V15H0V0z"/>
<path class="st0" d="M10.2,16.5c0.3,0,0.5,0.1,0.8,0.1c1.1,0,1.5-0.6,1.5-1.6L9.4,3.7h3l1.7,7.8l0,0l1.5-7.8h2.9l-2.7,10.5
	c-1,3.9-1.7,4.4-4.3,4.4h-1.2v-2.1H10.2z"/>
<path class="st0" d="M19.3,3.7h2.8v1.2l0,0c0.5-1,1.5-1.5,2.6-1.5c2.4,0,3.5,1.7,3.5,5.9s-1.1,5.9-3.5,5.9c-1,0.1-1.9-0.5-2.4-1.3
	l0,0v4.7h-2.9V3.7H19.3z M23.7,13c1.3,0,1.5-1.3,1.5-3.7s-0.3-3.7-1.5-3.7s-1.5,1.3-1.5,3.7S22.5,13,23.7,13z"/>
<path class="st0" d="M32.1,9.8v0.9c0,1.3,0.4,2.6,1.4,2.6s1.4-0.7,1.5-2.1h2.6c-0.1,2.6-1.4,4.1-4.1,4.1c-4.2,0-4.4-3.2-4.4-6
	c0-3,0.6-5.8,4.5-5.8c3.4,0,4.1,2.3,4.1,5.7v0.6C37.7,9.8,32.1,9.8,32.1,9.8z M35,8c-0.1-1.7-0.3-2.7-1.5-2.7S32,6.5,32,7.5V8H35z"
	/>
<path class="st0" d="M42,11.7V15h-2.8v-3.3H42z"/>
</svg>
